# File created by Blade
# Date/Time:  Tue Apr 07 20:53:11 2015
# Frame Rate: 120.000 fps
#------------------------------------------------------
:FULLY-SPECIFIED
:DEGREES
660
root -6.086720 35.800417 3.855969 18.837622 -71.712950 -122.736305
Spine -58.003489 -14.268733 -3.368438
Head -86.643585 -7.136445 7.109647
LeftShoulder -16.007844 -5.705524 33.782445
LeftArm 177.958037 -71.464756 -130.085945
LeftForeArm -22.575478 -0.000000 -3.004312
LeftHand 19.233840 -0.000000 97.169995
LeftHandThumb1 -26.253704 0.000000 33.147579
RightShoulder -34.858286 46.984309 -64.097823
RightArm 46.682507 34.629514 3.414744
RightForeArm 39.003633 -0.000000 -15.622979
RightHand 29.022563 -0.000000 -93.388132
RightHandThumb1 -24.326973 -0.000000 -32.862282
LeftUpLeg 14.845175 -5.427363 26.054471
LeftLeg 19.876964 -0.000000 -0.000000
LeftFoot 34.789783 27.115151 -9.444783
LeftToeBase 16.322551 -0.000000 -0.000000
RightUpLeg -94.528228 -28.967002 -2.267026
RightLeg 19.301850 -0.000000 -0.000000
RightFoot 37.875705 -14.146056 -0.975382
RightToeBase 25.029915 -0.000000 -0.000000
661
root -5.844135 35.985478 3.804081 18.905691 -71.527539 -124.311548
Spine -57.402887 -14.332761 -3.446792
Head -85.722668 -7.198788 7.212923
LeftShoulder -16.125781 -5.074405 33.977751
LeftArm 175.586966 -69.774855 -128.321576
LeftForeArm -21.523571 -0.000000 -2.057993
LeftHand 19.038105 -0.000000 96.934549
LeftHandThumb1 -26.253704 0.000000 33.147579
RightShoulder -35.088697 46.904003 -64.438290
RightArm 47.297559 34.279239 4.967102
RightForeArm 38.006320 -0.000000 -15.061981
RightHand 28.612251 0.000000 -93.844940
RightHandThumb1 -24.326973 -0.000000 -32.862282
LeftUpLeg 14.743933 -6.194594 26.438627
LeftLeg 19.109243 -0.000000 -0.000000
LeftFoot 33.904816 28.181194 -9.042013
LeftToeBase 16.922970 -0.000000 -0.000000
RightUpLeg -94.111324 -29.371661 -2.125561
RightLeg 18.192937 -0.000000 -0.000000
RightFoot 38.199301 -14.108293 -1.092726
RightToeBase 25.065882 -0.000000 -0.000000
662
root -5.604433 36.167174 3.744569 19.113891 -71.283140 -126.113571
Spine -56.696904 -14.408768 -3.468837
Head -84.900134 -7.271510 7.468034
LeftShoulder -16.595152 -4.110641 34.090969
LeftArm 173.284133 -66.748531 -126.957897
LeftForeArm -19.592415 -0.000000 -0.528381
LeftHand 18.765001 0.000000 96.762587
LeftHandThumb1 -26.253704 0.000000 33.147579
RightShoulder -35.280447 46.742225 -64.700485
RightArm 47.987449 34.272834 6.804700
RightForeArm 36.636086 -0.000000 -14.304021
RightHand 28.102840 -0.000000 -94.579383
RightHandThumb1 -24.326973 -0.000000 -32.862282
LeftUpLeg 14.604801 -6.823879 26.968336
LeftLeg 18.626627 -0.000000 -0.000000
LeftFoot 33.197914 28.790936 -8.398623
LeftToeBase 17.518768 -0.000000 -0.000000
RightUpLeg -93.617699 -29.759029 -1.920901
RightLeg 17.046487 -0.000000 -0.000000
RightFoot 38.307238 -14.130409 -1.267936
RightToeBase 25.275550 -0.000000 -0.000000
663
root -5.365600 36.341040 3.692103 19.289111 -71.047088 -127.816473
Spine -56.021550 -14.537383 -3.485690
Head -84.133796 -7.228509 7.790436
LeftShoulder -17.789316 -4.130116 34.753754
LeftArm 168.091151 -62.678704 -123.680328
LeftForeArm -16.465148 -0.000000 1.785568
LeftHand 18.055037 0.000000 97.055913
LeftHandThumb1 -26.253704 0.000000 33.147579
RightShoulder -35.614857 46.666013 -65.244405
RightArm 48.320439 34.085617 8.736738
RightForeArm 35.340948 -0.000000 -13.303279
RightHand 27.572050 -0.000000 -95.483428
RightHandThumb1 -24.326973 -0.000000 -32.862282
LeftUpLeg 14.349296 -7.319831 27.471438
LeftLeg 18.270392 -0.000000 -0.000000
LeftFoot 32.919730 29.308231 -7.955304
LeftToeBase 17.755531 -0.000000 -0.000000
RightUpLeg -93.185947 -30.137194 -1.710319
RightLeg 15.824422 -0.000000 -0.000000
RightFoot 38.313153 -14.164401 -1.285440
RightToeBase 25.336469 -0.000000 -0.000000
664
root -5.130740 36.513400 3.641487 19.245958 -70.873868 -129.381290
Spine -55.289759 -14.660880 -3.585675
Head -83.346012 -7.067991 8.064819
LeftShoulder -18.893971 -4.287916 35.694169
LeftArm 163.415235 -59.087676 -121.309039
LeftForeArm -13.687812 -0.000000 4.157546
LeftHand 17.360052 -0.000000 97.655150
LeftHandThumb1 -26.253704 0.000000 33.147579
RightShoulder -35.833826 46.725060 -65.671139
RightArm 48.503516 33.469631 10.189757
RightForeArm 34.614313 -0.000000 -12.612705
RightHand 27.294248 -0.000000 -96.138573
RightHandThumb1 -24.326973 -0.000000 -32.862282
LeftUpLeg 14.157225 -7.645627 27.921946
LeftLeg 18.008599 -0.000000 -0.000000
LeftFoot 32.946513 29.720223 -7.510373
LeftToeBase 17.759987 -0.000000 -0.000000
RightUpLeg -92.698046 -30.448115 -1.596706
RightLeg 14.639716 -0.000000 -0.000000
RightFoot 38.108551 -14.223412 -1.164303
RightToeBase 25.412630 -0.000000 -0.000000
665
root -4.898657 36.675746 3.585297 19.417316 -70.634127 -131.135027
Spine -54.607377 -14.801448 -3.635192
Head -82.575718 -6.902050 8.291526
LeftShoulder -19.898826 -4.678331 36.811697
LeftArm 158.875912 -55.833168 -119.330834
LeftForeArm -11.138715 0.000000 6.510798
LeftHand 16.901160 -0.000000 97.735037
LeftHandThumb1 -26.253704 0.000000 33.147579
RightShoulder -36.077220 46.843332 -66.094465
RightArm 48.681359 32.667918 11.510828
RightForeArm 34.093730 -0.000000 -12.051927
RightHand 27.277907 -0.000000 -96.694659
RightHandThumb1 -24.326973 -0.000000 -32.862282
LeftUpLeg 13.856044 -7.846386 28.508109
LeftLeg 17.813177 -0.000000 -0.000000
LeftFoot 33.165095 29.971586 -7.354083
LeftToeBase 17.894140 -0.000000 -0.000000
RightUpLeg -92.273039 -30.745575 -1.341182
RightLeg 13.373789 -0.000000 -0.000000
RightFoot 37.971561 -14.485914 -0.930005
RightToeBase 25.591189 -0.000000 -0.000000
666
root -4.679827 36.827222 3.521434 19.725167 -70.276140 -133.001118
Spine -53.871496 -15.098427 -3.590666
Head -81.936820 -6.621460 8.643257
LeftShoulder -20.794664 -5.109514 38.013484
LeftArm 154.885721 -53.431480 -117.710333
LeftForeArm -9.317721 -0.000000 8.431264
LeftHand 16.571307 -0.000000 97.648681
LeftHandThumb1 -26.253704 0.000000 33.147579
RightShoulder -36.171462 46.960214 -66.270173
RightArm 48.757540 31.998999 12.596264
RightForeArm 33.650630 -0.000000 -11.483301
RightHand 26.918645 -0.000000 -97.193072
RightHandThumb1 -24.326973 -0.000000 -32.862282
LeftUpLeg 13.353951 -7.809477 29.243147
LeftLeg 17.787846 -0.000000 -0.000000
LeftFoot 33.597543 29.991350 -7.058172
LeftToeBase 17.818238 -0.000000 -0.000000
RightUpLeg -91.904295 -31.109639 -1.049832
RightLeg 12.230350 -0.000000 -0.000000
RightFoot 37.640712 -14.645468 -0.549040
RightToeBase 25.754453 -0.000000 -0.000000
